<svg width="74" height="69" viewBox="0 0 74 69" fill="none" xmlns="http://www.w3.org/2000/svg">
<path d="M72.5 34.5C72.5 52.6283 56.7067 67.5 37 67.5C17.2933 67.5 1.5 52.6283 1.5 34.5C1.5 16.3717 17.2933 1.5 37 1.5C56.7067 1.5 72.5 16.3717 72.5 34.5Z" stroke="url(#paint0_linear_252_84)" stroke-width="3"/>
<mask id="mask0_252_84" style="mask-type:alpha" maskUnits="userSpaceOnUse" x="23" y="13" width="19" height="40">
<path fill-rule="evenodd" clip-rule="evenodd" d="M33.3 48.3V13.8H40.7V48.3H33.3Z" fill="#201D1D"/>
<path fill-rule="evenodd" clip-rule="evenodd" d="M33.3 48.3V13.8H40.7V48.3H33.3Z" fill="black" fill-opacity="0.2"/>
<path fill-rule="evenodd" clip-rule="evenodd" d="M33.3 48.3V13.8H40.7V48.3H33.3Z" stroke="black"/>
<path fill-rule="evenodd" clip-rule="evenodd" d="M33.3 48.3V13.8H40.7V48.3H33.3Z" stroke="black" stroke-opacity="0.2"/>
<mask id="path-3-inside-1_252_84" fill="white">
<path d="M40.7 44.85C40.7 49.2959 36.8347 52.9 32.0667 52.9C27.2986 52.9 23.4333 49.2959 23.4333 44.85C23.4333 40.4042 27.2986 36.8 32.0667 36.8C36.8347 36.8 40.7 40.4042 40.7 44.85Z"/>
</mask>
<path d="M40.7 44.85C40.7 49.2959 36.8347 52.9 32.0667 52.9C27.2986 52.9 23.4333 49.2959 23.4333 44.85C23.4333 40.4042 27.2986 36.8 32.0667 36.8C36.8347 36.8 40.7 40.4042 40.7 44.85Z" fill="#201D1D"/>
<path d="M40.7 44.85C40.7 49.2959 36.8347 52.9 32.0667 52.9C27.2986 52.9 23.4333 49.2959 23.4333 44.85C23.4333 40.4042 27.2986 36.8 32.0667 36.8C36.8347 36.8 40.7 40.4042 40.7 44.85Z" fill="black" fill-opacity="0.2"/>
<path d="M40.7 44.85C40.7 49.2959 36.8347 52.9 32.0667 52.9C27.2986 52.9 23.4333 49.2959 23.4333 44.85C23.4333 40.4042 27.2986 36.8 32.0667 36.8C36.8347 36.8 40.7 40.4042 40.7 44.85Z" stroke="black" stroke-width="2" mask="url(#path-3-inside-1_252_84)"/>
<path d="M40.7 44.85C40.7 49.2959 36.8347 52.9 32.0667 52.9C27.2986 52.9 23.4333 49.2959 23.4333 44.85C23.4333 40.4042 27.2986 36.8 32.0667 36.8C36.8347 36.8 40.7 40.4042 40.7 44.85Z" stroke="black" stroke-opacity="0.2" stroke-width="2" mask="url(#path-3-inside-1_252_84)"/>
</mask>
<g mask="url(#mask0_252_84)">
<g filter="url(#filter0_i_252_84)">
<path d="M18.5 6.8999H43.1667L45.0167 54.0499H18.5V6.8999Z" fill="url(#paint1_linear_252_84)"/>
<path d="M18.5 6.8999H43.1667L45.0167 54.0499H18.5V6.8999Z" fill="url(#paint2_linear_252_84)"/>
</g>
</g>
<defs>
<filter id="filter0_i_252_84" x="18.5" y="6.8999" width="26.5167" height="51.1499" filterUnits="userSpaceOnUse" color-interpolation-filters="sRGB">
<feFlood flood-opacity="0" result="BackgroundImageFix"/>
<feBlend mode="normal" in="SourceGraphic" in2="BackgroundImageFix" result="shape"/>
<feColorMatrix in="SourceAlpha" type="matrix" values="0 0 0 0 0 0 0 0 0 0 0 0 0 0 0 0 0 0 127 0" result="hardAlpha"/>
<feOffset dy="4"/>
<feGaussianBlur stdDeviation="2"/>
<feComposite in2="hardAlpha" operator="arithmetic" k2="-1" k3="1"/>
<feColorMatrix type="matrix" values="0 0 0 0 0 0 0 0 0 0 0 0 0 0 0 0 0 0 0.25 0"/>
<feBlend mode="normal" in2="shape" result="effect1_innerShadow_252_84"/>
</filter>
<linearGradient id="paint0_linear_252_84" x1="37" y1="0" x2="37" y2="69" gradientUnits="userSpaceOnUse">
<stop stop-color="#20381C"/>
<stop offset="1" stop-color="#E3941C"/>
</linearGradient>
<linearGradient id="paint1_linear_252_84" x1="30.8333" y1="6.8999" x2="30.8333" y2="54.0499" gradientUnits="userSpaceOnUse">
<stop stop-color="#2EB718"/>
<stop offset="1" stop-color="#E3941C"/>
</linearGradient>
<linearGradient id="paint2_linear_252_84" x1="30.8333" y1="6.8999" x2="30.8333" y2="54.0499" gradientUnits="userSpaceOnUse">
<stop stop-color="#2EB718"/>
<stop offset="1" stop-color="#E3941C"/>
</linearGradient>
</defs>
</svg>
